{"title":"All of Me (1984 WEB-DL Widescreen) fiveofseven","uid":13887346,"size":1268895230,"categoryP":"video","categoryS":"movies","magnet":"?xt=urn:btih:f4eb1780b4d8e85ab131abfa886b9ca9bd5abce4&amp;dn=All+of+Me+%281984+WEB-DL+Widescreen%29+fiveofseven&amp;tr=udp%3A%2F%2Ftracker.leechers-paradise.org%3A6969&amp;tr=udp%3A%2F%2Fzer0day.ch%3A1337&amp;tr=udp%3A%2F%2Fopen.demonii.com%3A1337&amp;tr=udp%3A%2F%2Ftracker.coppersurfer.tk%3A6969&amp;tr=udp%3A%2F%2Fexodus.desync.com%3A6969","seeders":1,"leechers":1,"uploader":"fiveofseven","files":3,"time":1458183859,"description":"\nPLOT - A dying millionnaire has her soul transferred into a\r\nyounger, willing woman. But something goes wrong, and she finds \r\nherself in her lawyer's body - together with the lawyer.\r\n\r\nINFO\r\n\r\nEncoder: fiveofseven\r\nSource: All.of.Me.1984.720p.WEB-DL.AAC2.0.H.264-alfaHD.mkv \r\nRating: PG-13\r\nGenre: Comedy, Fantasy, Romance\r\nSubtitles: English\r\nPoster:  \nhttps://yuq.me/users/25/564/hWKTN98aLz.jpg \r\n \r\nGeneral\r\nComplete name                            : All of Me 720p Webrip - fiveofseven.mp4\r\nFormat                                   : MPEG-4\r\nFormat profile                           : Base Media\r\nCodec ID                                 : isom\r\nFile size                                : 1.17 GiB\r\nDuration                                 : 1h 31mn\r\nOverall bit rate mode                    : Variable\r\nOverall bit rate                         : 1 832 Kbps\r\nEncoded date                             : UTC 2016-03-12 04:50:43\r\nTagged date                              : UTC 2016-03-16 21:02:33\r\nWriting application                      : My MP4Box GUI 0.6.0.6 &lt;http://my-mp4box-gui.zymichost.com&gt;\r\nComment                                  : Encoded by fiveofseven\r\n\r\nVideo\r\nID                                       : 1\r\nFormat                                   : AVC\r\nFormat/Info                              : Advanced Video Codec\r\nFormat profile                           :   \r\nFormat settings, CABAC                   : Yes\r\nFormat settings, ReFrames                : 7 frames\r\nCodec ID                                 : avc1\r\nCodec ID/Info                            : Advanced Video Coding\r\nDuration                                 : 1h 31mn\r\nBit rate                                 : 1 700 Kbps\r\nMaximum bit rate                         : 4 239 Kbps\r\nWidth                                    : 1 280 pixels\r\nHeight                                   : 688 pixels\r\nDisplay aspect ratio                     : 1.85:1\r\nFrame rate mode                          : Constant\r\nFrame rate                               : 24.000 fps\r\nColor space                              : YUV\r\nChroma subsampling                       : 4:2:0\r\nBit depth                                : 8 bits\r\nScan type                                : Progressive\r\nBits/(Pixel*Frame)                       : 0.080\r\nStream size                              : 1.09 GiB (93%)\r\nTitle                                    : AOM.mp4\r\nWriting library                          : x264 core 146 r2538 121396c\r\nLanguage                                 : English\r\nEncoded date                             : UTC 2016-03-12 04:02:01\r\nTagged date                              : UTC 2016-03-12 04:51:37\r\n\r\nAudio\r\nID                                       : 2\r\nFormat                                   : AAC\r\nFormat/Info                              : Advanced Audio Codec\r\nFormat profile                           : LC\r\nCodec ID                                 : 40\r\nDuration                                 : 1h 31mn\r\nBit rate mode                            : Variable\r\nBit rate                                 : 128 Kbps\r\nMaximum bit rate                         : 132 Kbps\r\nChannel count                            : 2 channels\r\nChannel positions                        : Front: L R\r\nSampling rate                            : 48.0 KHz\r\nCompression mode                         : Lossy\r\nStream size                              : 83.9 MiB (7%)\r\nTitle                                    : aac.mp4\r\nLanguage                                 : English\r\nEncoded date                             : UTC 2016-03-12 04:51:31\r\nTagged date                              : UTC 2016-03-12 04:51:37\r\n\r\nSrcreenshots - \r\n  \nhttps://yuq.me/users/25/564/5Hhz6pMeJ7.png \r\n  \nhttps://yuq.me/users/25/564/mG6U03zhRn.png \r\n  \nhttps://yuq.me/users/25/564/8mqIbfas5F.png \r\n  \nhttps://yuq.me/users/25/564/tMSzUovxXT.png \r\n \r\nUploader - \r\n  \nhttps://yuq.me/users/25/564/aegRQCBILx.png","torrent":{"xt":"urn:btih:f4eb1780b4d8e85ab131abfa886b9ca9bd5abce4","amp;dn":"All+of+Me+%281984+WEB-DL+Widescreen%29+fiveofseven","amp;tr":["udp%3A%2F%2Ftracker.leechers-paradise.org%3A6969","udp%3A%2F%2Fzer0day.ch%3A1337","udp%3A%2F%2Fopen.demonii.com%3A1337","udp%3A%2F%2Ftracker.coppersurfer.tk%3A6969","udp%3A%2F%2Fexodus.desync.com%3A6969"],"infoHash":"f4eb1780b4d8e85ab131abfa886b9ca9bd5abce4","infoHashBuffer":{"type":"Buffer","data":[244,235,23,128,180,216,232,90,177,49,171,250,136,107,156,169,189,90,188,228]},"announce":[],"urlList":[]}}